# xmcd CD database file
#
# Track frame offsets:
#	150
#	22875
#	45525
#	61125
#	79925
#	92625
#	113850
#	122625
#	151125
#	165975
#	183000
#
# Disc length: 2746 seconds
#
# Revision: 3
# Processed by: cddbd v1.5.2PL0 Copyright (c) Steve Scherf et al.
# Submitted via: CDex 1.50
#
DISCID=740ab80b
DTITLE=Verschiedene - The Ultimate Blues Collection Vol. 3 - CD03
DYEAR=1900
DGENRE=
TTITLE0=Willie Mabon - Klickety Klock
TTITLE1=Willie Mabon - Lover Girl
TTITLE2=Willie Mabon - Dorsey's Boogie
TTITLE3=Willie Mabon - The Seventh Son
TTITLE4=The Cat - I Love My Baby
TTITLE5=Katie Webster - Came Home This Morning
TTITLE6=Katie Webster - Rockin' The Subway
TTITLE7=Big Moose Walker - Don't Cry Baby
TTITLE8=Little Willie Littlefield - Adam Come And Get Your Bone
TTITLE9=Little Willie Littlefield - Prisoner For Tonight
TTITLE10=Tommy Tucker - Trouble In Mind
EXTD=
EXTT0=
EXTT1=
EXTT2=
EXTT3=
EXTT4=
EXTT5=
EXTT6=
EXTT7=
EXTT8=
EXTT9=
EXTT10=
PLAYORDER=
